<svg width="286" height="36" viewBox="0 0 286 36" fill="none" xmlns="http://www.w3.org/2000/svg">
<path d="M0.835227 16.9545C0.835227 13.733 1.25284 10.7713 2.08807 8.0696C2.93182 5.35937 4.13352 2.86648 5.69318 0.590907H8.35227C7.73864 1.43466 7.16335 2.47443 6.62642 3.71023C6.09801 4.9375 5.63352 6.28835 5.23295 7.76278C4.83239 9.22869 4.51705 10.7457 4.28693 12.3139C4.06534 13.8821 3.95455 15.429 3.95455 16.9545C3.95455 18.983 4.15057 21.0412 4.54261 23.1293C4.93466 25.2173 5.46307 27.1562 6.12784 28.946C6.79261 30.7358 7.53409 32.1932 8.35227 33.3182H5.69318C4.13352 31.0426 2.93182 28.554 2.08807 25.8523C1.25284 23.142 0.835227 20.1761 0.835227 16.9545ZM34.1282 16.9545C34.1282 13.733 34.5458 10.7713 35.381 8.0696C36.2248 5.35937 37.4265 2.86648 38.9862 0.590907H41.6452C41.0316 1.43466 40.4563 2.47443 39.9194 3.71023C39.391 4.9375 38.9265 6.28835 38.5259 7.76278C38.1254 9.22869 37.81 10.7457 37.5799 12.3139C37.3583 13.8821 37.2475 15.429 37.2475 16.9545C37.2475 18.983 37.4435 21.0412 37.8356 23.1293C38.2276 25.2173 38.756 27.1562 39.4208 28.946C40.0856 30.7358 40.8271 32.1932 41.6452 33.3182H38.9862C37.4265 31.0426 36.2248 28.554 35.381 25.8523C34.5458 23.142 34.1282 20.1761 34.1282 16.9545ZM57.2962 16.9545C57.2962 13.733 57.7138 10.7713 58.549 8.0696C59.3928 5.35937 60.5945 2.86648 62.1541 0.590907H64.8132C64.1996 1.43466 63.6243 2.47443 63.0874 3.71023C62.5589 4.9375 62.0945 6.28835 61.6939 7.76278C61.2933 9.22869 60.978 10.7457 60.7479 12.3139C60.5263 13.8821 60.4155 15.429 60.4155 16.9545C60.4155 18.983 60.6115 21.0412 61.0036 23.1293C61.3956 25.2173 61.924 27.1562 62.5888 28.946C63.2536 30.7358 63.995 32.1932 64.8132 33.3182H62.1541C60.5945 31.0426 59.3928 28.554 58.549 25.8523C57.7138 23.142 57.2962 20.1761 57.2962 16.9545ZM68.038 22.9886H71.2596C71.3278 23.875 71.7283 24.5483 72.4613 25.0085C73.2028 25.4688 74.1658 25.6989 75.3505 25.6989C76.5607 25.6989 77.5962 25.4517 78.457 24.9574C79.3178 24.4545 79.7482 23.6449 79.7482 22.5284C79.7482 21.8722 79.5863 21.3011 79.2624 20.8153C78.9386 20.321 78.4826 19.9375 77.8945 19.6648C77.3065 19.392 76.6119 19.2557 75.8107 19.2557H72.4357V16.5455H75.8107C77.0124 16.5455 77.8988 16.2727 78.4698 15.7273C79.0494 15.1818 79.3391 14.5 79.3391 13.6818C79.3391 12.804 79.0281 12.1009 78.4059 11.5724C77.7837 11.0355 76.9016 10.767 75.7596 10.767C74.609 10.767 73.6502 11.027 72.8832 11.5469C72.1161 12.0582 71.7113 12.7187 71.6687 13.5284H68.4982C68.5323 12.4716 68.8562 11.5384 69.4698 10.7287C70.0835 9.91051 70.9187 9.27131 71.9755 8.81108C73.0323 8.34233 74.2425 8.10795 75.6062 8.10795C76.9869 8.10795 78.1843 8.35085 79.1985 8.83665C80.2212 9.31392 81.0096 9.96591 81.5636 10.7926C82.1261 11.6108 82.4073 12.5398 82.4073 13.5795C82.4073 14.6875 82.0962 15.5824 81.4741 16.2642C80.8519 16.946 80.0721 17.4318 79.1346 17.7216V17.9261C79.8761 17.9773 80.5195 18.2159 81.065 18.642C81.619 19.0597 82.0494 19.6094 82.3562 20.2912C82.663 20.9645 82.8164 21.7102 82.8164 22.5284C82.8164 23.7216 82.4968 24.7614 81.8576 25.6477C81.2184 26.5256 80.3406 27.2074 79.2241 27.6932C78.1076 28.1705 76.8335 28.4091 75.4016 28.4091C74.0124 28.4091 72.7681 28.1832 71.6687 27.7315C70.5692 27.2713 69.6957 26.6364 69.0479 25.8267C68.4087 25.0085 68.0721 24.0625 68.038 22.9886ZM92.8327 28.4602C91.5884 28.4602 90.4592 28.2259 89.445 27.7571C88.4308 27.2798 87.6254 26.5938 87.0288 25.6989C86.4322 24.7955 86.1339 23.7045 86.1339 22.4261C86.1339 21.3011 86.3555 20.3892 86.7987 19.6903C87.2418 18.983 87.8342 18.429 88.5756 18.0284C89.3171 17.6278 90.1353 17.3295 91.0302 17.1335C91.9336 16.929 92.8413 16.767 93.7532 16.6477C94.9464 16.4943 95.9137 16.3793 96.6552 16.3026C97.4052 16.2173 97.9506 16.0767 98.2915 15.8807C98.641 15.6847 98.8157 15.3437 98.8157 14.858V14.7557C98.8157 13.4943 98.4705 12.5142 97.7802 11.8153C97.0984 11.1165 96.0629 10.767 94.6737 10.767C93.2333 10.767 92.104 11.0824 91.2859 11.7131C90.4677 12.3437 89.8924 13.017 89.56 13.733L86.6964 12.7102C87.2077 11.517 87.8896 10.5881 88.7418 9.9233C89.6026 9.25 90.5401 8.78125 91.5543 8.51705C92.5771 8.24432 93.5827 8.10795 94.5714 8.10795C95.2021 8.10795 95.9265 8.18466 96.7447 8.33807C97.5714 8.48295 98.3683 8.78551 99.1353 9.24574C99.9109 9.70597 100.554 10.4006 101.066 11.3295C101.577 12.2585 101.833 13.5028 101.833 15.0625V28H98.8157V25.3409H98.6623C98.4577 25.767 98.1168 26.223 97.6396 26.7088C97.1623 27.1946 96.5273 27.608 95.7347 27.9489C94.9421 28.2898 93.9748 28.4602 92.8327 28.4602ZM93.293 25.75C94.4862 25.75 95.4918 25.5156 96.31 25.0469C97.1367 24.5781 97.7589 23.973 98.1765 23.2315C98.6026 22.4901 98.8157 21.7102 98.8157 20.892V18.1307C98.6879 18.2841 98.4066 18.4247 97.9719 18.5526C97.5458 18.6719 97.0515 18.7784 96.489 18.8722C95.935 18.9574 95.3938 19.0341 94.8654 19.1023C94.3455 19.1619 93.9237 19.2131 93.5998 19.2557C92.8157 19.358 92.0827 19.5241 91.4009 19.7543C90.7276 19.9759 90.1822 20.3125 89.7646 20.7642C89.3555 21.2074 89.1509 21.8125 89.1509 22.5795C89.1509 23.6278 89.5387 24.4205 90.3143 24.9574C91.0984 25.4858 92.0913 25.75 93.293 25.75ZM119.459 8.36364V11.1761H110.357V28H107.339V8.36364H119.459ZM123.863 35.3636V8.36364H126.778V11.483H127.136C127.357 11.142 127.664 10.7074 128.056 10.179C128.457 9.64205 129.028 9.16477 129.769 8.74716C130.519 8.32102 131.533 8.10795 132.812 8.10795C134.465 8.10795 135.923 8.52131 137.184 9.34801C138.445 10.1747 139.43 11.3466 140.137 12.8636C140.844 14.3807 141.198 16.1705 141.198 18.233C141.198 20.3125 140.844 22.1151 140.137 23.6406C139.43 25.1577 138.45 26.3338 137.197 27.169C135.944 27.9957 134.499 28.4091 132.863 28.4091C131.602 28.4091 130.592 28.2003 129.833 27.7827C129.075 27.3565 128.491 26.875 128.082 26.3381C127.673 25.7926 127.357 25.3409 127.136 24.983H126.88V35.3636H123.863ZM126.829 18.1818C126.829 19.6648 127.046 20.973 127.481 22.1065C127.915 23.2315 128.55 24.1136 129.386 24.7528C130.221 25.3835 131.244 25.6989 132.454 25.6989C133.715 25.6989 134.768 25.3665 135.612 24.7017C136.464 24.0284 137.103 23.125 137.529 21.9915C137.964 20.8494 138.181 19.5795 138.181 18.1818C138.181 16.8011 137.968 15.5568 137.542 14.4489C137.124 13.3324 136.489 12.4503 135.637 11.8026C134.793 11.1463 133.732 10.8182 132.454 10.8182C131.227 10.8182 130.195 11.1293 129.36 11.7514C128.525 12.3651 127.894 13.2259 127.468 14.3338C127.042 15.4332 126.829 16.7159 126.829 18.1818ZM147.04 35.3636C146.529 35.3636 146.073 35.321 145.673 35.2358C145.272 35.1591 144.995 35.0824 144.842 35.0057L145.609 32.3466C146.342 32.5341 146.989 32.6023 147.552 32.5511C148.114 32.5 148.613 32.2486 149.048 31.7969C149.491 31.3537 149.896 30.6335 150.262 29.6364L150.825 28.1023L143.563 8.36364H146.836L152.256 24.0114H152.461L157.881 8.36364H161.154L152.819 30.8636C152.444 31.8778 151.979 32.7173 151.425 33.3821C150.871 34.0554 150.228 34.554 149.495 34.8778C148.771 35.2017 147.952 35.3636 147.04 35.3636ZM163.909 22.9886H167.131C167.199 23.875 167.599 24.5483 168.332 25.0085C169.074 25.4688 170.037 25.6989 171.222 25.6989C172.432 25.6989 173.467 25.4517 174.328 24.9574C175.189 24.4545 175.619 23.6449 175.619 22.5284C175.619 21.8722 175.457 21.3011 175.134 20.8153C174.81 20.321 174.354 19.9375 173.766 19.6648C173.178 19.392 172.483 19.2557 171.682 19.2557H168.307V16.5455H171.682C172.884 16.5455 173.77 16.2727 174.341 15.7273C174.92 15.1818 175.21 14.5 175.21 13.6818C175.21 12.804 174.899 12.1009 174.277 11.5724C173.655 11.0355 172.773 10.767 171.631 10.767C170.48 10.767 169.521 11.027 168.754 11.5469C167.987 12.0582 167.582 12.7187 167.54 13.5284H164.369C164.403 12.4716 164.727 11.5384 165.341 10.7287C165.955 9.91051 166.79 9.27131 167.847 8.81108C168.903 8.34233 170.114 8.10795 171.477 8.10795C172.858 8.10795 174.055 8.35085 175.07 8.83665C176.092 9.31392 176.881 9.96591 177.435 10.7926C177.997 11.6108 178.278 12.5398 178.278 13.5795C178.278 14.6875 177.967 15.5824 177.345 16.2642C176.723 16.946 175.943 17.4318 175.006 17.7216V17.9261C175.747 17.9773 176.391 18.2159 176.936 18.642C177.49 19.0597 177.92 19.6094 178.227 20.2912C178.534 20.9645 178.688 21.7102 178.688 22.5284C178.688 23.7216 178.368 24.7614 177.729 25.6477C177.089 26.5256 176.212 27.2074 175.095 27.6932C173.979 28.1705 172.705 28.4091 171.273 28.4091C169.884 28.4091 168.639 28.1832 167.54 27.7315C166.44 27.2713 165.567 26.6364 164.919 25.8267C164.28 25.0085 163.943 24.0625 163.909 22.9886ZM182.925 28V8.36364H185.942V16.9034H187.937L194.994 8.36364H198.88L190.954 17.8239L198.982 28H195.096L188.653 19.7159H185.942V28H182.925ZM208.04 28.4602C206.795 28.4602 205.666 28.2259 204.652 27.7571C203.638 27.2798 202.832 26.5938 202.236 25.6989C201.639 24.7955 201.341 23.7045 201.341 22.4261C201.341 21.3011 201.563 20.3892 202.006 19.6903C202.449 18.983 203.041 18.429 203.783 18.0284C204.524 17.6278 205.342 17.3295 206.237 17.1335C207.141 16.929 208.048 16.767 208.96 16.6477C210.153 16.4943 211.121 16.3793 211.862 16.3026C212.612 16.2173 213.158 16.0767 213.499 15.8807C213.848 15.6847 214.023 15.3437 214.023 14.858V14.7557C214.023 13.4943 213.678 12.5142 212.987 11.8153C212.305 11.1165 211.27 10.767 209.881 10.767C208.44 10.767 207.311 11.0824 206.493 11.7131C205.675 12.3437 205.099 13.017 204.767 13.733L201.903 12.7102C202.415 11.517 203.097 10.5881 203.949 9.9233C204.81 9.25 205.747 8.78125 206.761 8.51705C207.784 8.24432 208.79 8.10795 209.778 8.10795C210.409 8.10795 211.134 8.18466 211.952 8.33807C212.778 8.48295 213.575 8.78551 214.342 9.24574C215.118 9.70597 215.761 10.4006 216.273 11.3295C216.784 12.2585 217.04 13.5028 217.04 15.0625V28H214.023V25.3409H213.869C213.665 25.767 213.324 26.223 212.847 26.7088C212.369 27.1946 211.734 27.608 210.942 27.9489C210.149 28.2898 209.182 28.4602 208.04 28.4602ZM208.5 25.75C209.693 25.75 210.699 25.5156 211.517 25.0469C212.344 24.5781 212.966 23.973 213.384 23.2315C213.81 22.4901 214.023 21.7102 214.023 20.892V18.1307C213.895 18.2841 213.614 18.4247 213.179 18.5526C212.753 18.6719 212.259 18.7784 211.696 18.8722C211.142 18.9574 210.601 19.0341 210.072 19.1023C209.553 19.1619 209.131 19.2131 208.807 19.2557C208.023 19.358 207.29 19.5241 206.608 19.7543C205.935 19.9759 205.389 20.3125 204.972 20.7642C204.563 21.2074 204.358 21.8125 204.358 22.5795C204.358 23.6278 204.746 24.4205 205.521 24.9574C206.305 25.4858 207.298 25.75 208.5 25.75ZM228.99 16.9545C228.99 20.1761 228.568 23.142 227.724 25.8523C226.889 28.554 225.691 31.0426 224.132 33.3182H221.473C222.086 32.4744 222.657 31.4347 223.186 30.1989C223.723 28.9716 224.191 27.625 224.592 26.1591C224.993 24.6847 225.304 23.1634 225.525 21.5952C225.755 20.0185 225.87 18.4716 225.87 16.9545C225.87 14.9261 225.674 12.8679 225.282 10.7798C224.89 8.69176 224.362 6.75284 223.697 4.96307C223.032 3.17329 222.291 1.71591 221.473 0.590907H224.132C225.691 2.86648 226.889 5.35937 227.724 8.0696C228.568 10.7713 228.99 13.733 228.99 16.9545ZM252.158 16.9545C252.158 20.1761 251.736 23.142 250.892 25.8523C250.057 28.554 248.859 31.0426 247.3 33.3182H244.641C245.254 32.4744 245.825 31.4347 246.354 30.1989C246.891 28.9716 247.359 27.625 247.76 26.1591C248.161 24.6847 248.472 23.1634 248.693 21.5952C248.923 20.0185 249.038 18.4716 249.038 16.9545C249.038 14.9261 248.842 12.8679 248.45 10.7798C248.058 8.69176 247.53 6.75284 246.865 4.96307C246.2 3.17329 245.459 1.71591 244.641 0.590907H247.3C248.859 2.86648 250.057 5.35937 250.892 8.0696C251.736 10.7713 252.158 13.733 252.158 16.9545ZM285.451 16.9545C285.451 20.1761 285.029 23.142 284.185 25.8523C283.35 28.554 282.152 31.0426 280.593 33.3182H277.934C278.547 32.4744 279.118 31.4347 279.647 30.1989C280.184 28.9716 280.652 27.625 281.053 26.1591C281.453 24.6847 281.765 23.1634 281.986 21.5952C282.216 20.0185 282.331 18.4716 282.331 16.9545C282.331 14.9261 282.135 12.8679 281.743 10.7798C281.351 8.69176 280.823 6.75284 280.158 4.96307C279.493 3.17329 278.752 1.71591 277.934 0.590907H280.593C282.152 2.86648 283.35 5.35937 284.185 8.0696C285.029 10.7713 285.451 13.733 285.451 16.9545Z" fill="black"/>
</svg>
